# Blender v2.78 (sub 0) OBJ File: 'TransformGizmo.blend'
# www.blender.org
mtllib TransformGizmo.mtl
o Cylinder_Cylinder.005
v 0.000000 1.893216 0.219801
v 0.000000 -1.893216 0.219801
v 0.033350 1.893216 0.215577
v 0.033350 -1.893216 0.215577
v 0.065418 1.893216 0.203069
v 0.065418 -1.893216 0.203069
v 0.094972 1.893216 0.182758
v 0.094972 -1.893216 0.182758
v 0.120876 1.893216 0.155422
v 0.120876 -1.893216 0.155422
v 0.142135 1.893216 0.122115
v 0.142135 -1.893216 0.122115
v 0.157932 1.893216 0.084114
v 0.157932 -1.893216 0.084114
v 0.167660 1.893216 0.042881
v 0.167660 -1.893216 0.042881
v 0.170944 1.893216 0.000000
v 0.170944 -1.893216 0.000000
v 0.167660 1.893216 -0.042881
v 0.167660 -1.893216 -0.042881
v 0.157932 1.893216 -0.084114
v 0.157932 -1.893216 -0.084114
v 0.142135 1.893216 -0.122115
v 0.142135 -1.893216 -0.122115
v 0.120876 1.893216 -0.155422
v 0.120876 -1.893216 -0.155422
v 0.094972 1.893216 -0.182758
v 0.094972 -1.893216 -0.182758
v 0.065418 1.893216 -0.203069
v 0.065418 -1.893216 -0.203069
v 0.033350 1.893216 -0.215577
v 0.033350 -1.893216 -0.215577
v -0.000000 1.893216 -0.219801
v -0.000000 -1.893216 -0.219801
v -0.033350 1.893216 -0.215577
v -0.033350 -1.893216 -0.215577
v -0.065418 1.893216 -0.203069
v -0.065418 -1.893216 -0.203069
v -0.094972 1.893216 -0.182757
v -0.094972 -1.893216 -0.182757
v -0.120876 1.893216 -0.155422
v -0.120876 -1.893216 -0.155422
v -0.142135 1.893216 -0.122115
v -0.142135 -1.893216 -0.122115
v -0.157932 1.893216 -0.084114
v -0.157932 -1.893216 -0.084114
v -0.167660 1.893216 -0.042881
v -0.167660 -1.893216 -0.042881
v -0.170944 1.893216 0.000000
v -0.170944 -1.893216 0.000000
v -0.167660 1.893216 0.042881
v -0.167660 -1.893216 0.042881
v -0.157932 1.893216 0.084114
v -0.157932 -1.893216 0.084114
v -0.142135 1.893216 0.122115
v -0.142135 -1.893216 0.122115
v -0.120876 1.893216 0.155423
v -0.120876 -1.893216 0.155423
v -0.094971 1.893216 0.182758
v -0.094971 -1.893216 0.182758
v -0.065417 1.893216 0.203069
v -0.065417 -1.893216 0.203069
v -0.033349 1.893216 0.215577
v -0.033349 -1.893216 0.215577
v 0.001260 1.751804 -0.361606
v 0.071280 1.751804 -0.354709
v 0.138610 1.751804 -0.334285
v 0.200662 1.751804 -0.301118
v 0.255050 1.751804 -0.256482
v 0.299686 1.751804 -0.202093
v 0.332853 1.751804 -0.140042
v 0.353278 1.751804 -0.072712
v 0.360174 1.751804 -0.002691
v 0.001260 2.469633 -0.002691
v 0.353278 1.751804 0.067330
v 0.332853 1.751804 0.134659
v 0.299686 1.751804 0.196711
v 0.255050 1.751804 0.251100
v 0.200662 1.751804 0.295735
v 0.138610 1.751804 0.328903
v 0.071280 1.751804 0.349327
v 0.001259 1.751804 0.356223
v -0.068761 1.751804 0.349327
v -0.136091 1.751804 0.328903
v -0.198143 1.751804 0.295735
v -0.252531 1.751804 0.251100
v -0.297167 1.751804 0.196711
v -0.330334 1.751804 0.134659
v -0.350759 1.751804 0.067329
v -0.357655 1.751804 -0.002691
v -0.350758 1.751804 -0.072712
v -0.330334 1.751804 -0.140042
v -0.297167 1.751804 -0.202094
v -0.252531 1.751804 -0.256482
v -0.198142 1.751804 -0.301118
v -0.136091 1.751804 -0.334285
v -0.068761 1.751804 -0.354709
vt 0.0000 0.0000
vt 1.0000 0.0000
vt 1.0000 1.0000
vt 0.0000 0.0000
vt 1.0000 1.0000
vt 0.0000 0.0000
vt 1.0000 1.0000
vt 0.0000 0.0000
vt 1.0000 1.0000
vt 0.0000 0.0000
vt 1.0000 1.0000
vt 0.0000 0.0000
vt 1.0000 1.0000
vt 0.0000 0.0000
vt 1.0000 1.0000
vt 0.0000 0.0000
vt 1.0000 1.0000
vt 0.0000 0.0000
vt 1.0000 1.0000
vt 0.0000 0.0000
vt 1.0000 1.0000
vt 0.0000 0.0000
vt 1.0000 1.0000
vt 0.0000 0.0000
vt 1.0000 1.0000
vt 0.0000 0.0000
vt 1.0000 1.0000
vt 0.0000 0.0000
vt 1.0000 1.0000
vt 0.0000 0.0000
vt 1.0000 1.0000
vt 0.0000 0.0000
vt 1.0000 1.0000
vt 0.0000 0.0000
vt 1.0000 1.0000
vt 0.0000 0.0000
vt 1.0000 1.0000
vt 0.0000 0.0000
vt 1.0000 1.0000
vt 0.0000 0.0000
vt 1.0000 1.0000
vt 0.0000 0.0000
vt 1.0000 1.0000
vt 0.0000 0.0000
vt 1.0000 1.0000
vt 0.0000 0.0000
vt 1.0000 1.0000
vt 0.0000 0.0000
vt 1.0000 1.0000
vt 0.0000 0.0000
vt 1.0000 1.0000
vt 0.0000 0.0000
vt 1.0000 1.0000
vt 0.0000 0.0000
vt 1.0000 1.0000
vt 0.0000 0.0000
vt 1.0000 1.0000
vt 0.0000 0.0000
vt 1.0000 1.0000
vt 0.0000 0.0000
vt 1.0000 1.0000
vt 0.0000 0.0000
vt 1.0000 1.0000
vt 0.0000 0.0000
vt 1.0000 1.0000
vt 0.5000 1.0000
vt 0.5975 0.9904
vt 0.6913 0.9619
vt 0.7778 0.9157
vt 0.8536 0.8536
vt 0.9157 0.7778
vt 0.9619 0.6913
vt 0.9904 0.5975
vt 1.0000 0.5000
vt 0.9904 0.4025
vt 0.9619 0.3087
vt 0.9157 0.2222
vt 0.8536 0.1464
vt 0.7778 0.0843
vt 0.6913 0.0381
vt 0.5975 0.0096
vt 0.5000 0.0000
vt 0.4025 0.0096
vt 0.3087 0.0381
vt 0.2222 0.0843
vt 0.1464 0.1464
vt 0.0843 0.2222
vt 0.0381 0.3087
vt 0.0096 0.4025
vt 0.0000 0.5000
vt 0.0096 0.5975
vt 0.0381 0.6913
vt 0.0843 0.7778
vt 0.1464 0.8536
vt 0.2222 0.9157
vt 0.3087 0.9619
vt 0.4025 0.9904
vt 0.0000 0.0000
vt 1.0000 0.0000
vt 1.0000 1.0000
vt 0.0000 1.0000
vt 0.0000 0.0000
vt 1.0000 0.0000
vt 1.0000 1.0000
vt 0.0000 1.0000
vt 0.0000 0.0000
vt 1.0000 0.0000
vt 1.0000 1.0000
vt 0.0000 1.0000
vt 0.0000 0.0000
vt 1.0000 0.0000
vt 1.0000 1.0000
vt 0.0000 1.0000
vt 0.0000 0.0000
vt 1.0000 0.0000
vt 1.0000 1.0000
vt 0.0000 1.0000
vt 0.0000 0.0000
vt 1.0000 0.0000
vt 1.0000 1.0000
vt 0.0000 1.0000
vt 0.0000 0.0000
vt 1.0000 0.0000
vt 1.0000 1.0000
vt 0.0000 1.0000
vt 0.0000 0.0000
vt 1.0000 0.0000
vt 1.0000 1.0000
vt 0.0000 1.0000
vt 0.0000 0.0000
vt 1.0000 0.0000
vt 1.0000 1.0000
vt 0.0000 1.0000
vt 0.0000 0.0000
vt 1.0000 0.0000
vt 1.0000 1.0000
vt 0.0000 1.0000
vt 0.0000 0.0000
vt 1.0000 0.0000
vt 1.0000 1.0000
vt 0.0000 1.0000
vt 0.0000 0.0000
vt 1.0000 0.0000
vt 1.0000 1.0000
vt 0.0000 1.0000
vt 0.0000 0.0000
vt 1.0000 0.0000
vt 1.0000 1.0000
vt 0.0000 1.0000
vt 0.0000 0.0000
vt 1.0000 0.0000
vt 1.0000 1.0000
vt 0.0000 1.0000
vt 0.0000 0.0000
vt 1.0000 0.0000
vt 1.0000 1.0000
vt 0.0000 1.0000
vt 0.0000 0.0000
vt 1.0000 0.0000
vt 1.0000 1.0000
vt 0.0000 1.0000
vt 0.0000 0.0000
vt 1.0000 0.0000
vt 1.0000 1.0000
vt 0.0000 1.0000
vt 0.0000 0.0000
vt 1.0000 0.0000
vt 1.0000 1.0000
vt 0.0000 1.0000
vt 0.0000 0.0000
vt 1.0000 0.0000
vt 1.0000 1.0000
vt 0.0000 1.0000
vt 0.0000 0.0000
vt 1.0000 0.0000
vt 1.0000 1.0000
vt 0.0000 1.0000
vt 0.0000 0.0000
vt 1.0000 0.0000
vt 1.0000 1.0000
vt 0.0000 1.0000
vt 0.0000 0.0000
vt 1.0000 0.0000
vt 1.0000 1.0000
vt 0.0000 1.0000
vt 0.0000 0.0000
vt 1.0000 0.0000
vt 1.0000 1.0000
vt 0.0000 1.0000
vt 0.0000 0.0000
vt 1.0000 0.0000
vt 1.0000 1.0000
vt 0.0000 1.0000
vt 0.0000 0.0000
vt 1.0000 0.0000
vt 1.0000 1.0000
vt 0.0000 1.0000
vt 0.0000 0.0000
vt 1.0000 0.0000
vt 1.0000 1.0000
vt 0.0000 1.0000
vt 0.0000 0.0000
vt 1.0000 0.0000
vt 1.0000 1.0000
vt 0.0000 1.0000
vt 0.0000 0.0000
vt 1.0000 0.0000
vt 1.0000 1.0000
vt 0.0000 1.0000
vt 0.0000 0.0000
vt 1.0000 0.0000
vt 1.0000 1.0000
vt 0.0000 1.0000
vt 0.0000 0.0000
vt 1.0000 0.0000
vt 1.0000 1.0000
vt 0.0000 1.0000
vt 0.5000 1.0000
vt 0.5975 0.9904
vt 0.6913 0.9619
vt 0.7778 0.9157
vt 0.8536 0.8536
vt 0.9157 0.7778
vt 0.9619 0.6913
vt 0.9904 0.5975
vt 1.0000 0.5000
vt 0.9904 0.4025
vt 0.9619 0.3087
vt 0.9157 0.2222
vt 0.8536 0.1464
vt 0.7778 0.0843
vt 0.6913 0.0381
vt 0.5975 0.0096
vt 0.5000 0.0000
vt 0.4025 0.0096
vt 0.3087 0.0381
vt 0.2222 0.0843
vt 0.1464 0.1464
vt 0.0843 0.2222
vt 0.0381 0.3087
vt 0.0096 0.4025
vt 0.0000 0.5000
vt 0.0096 0.5975
vt 0.0381 0.6913
vt 0.0843 0.7778
vt 0.1464 0.8536
vt 0.2222 0.9157
vt 0.3087 0.9619
vt 0.4025 0.9904
vt 0.0000 0.0000
vt 1.0000 0.0000
vt 1.0000 1.0000
vt 0.0000 1.0000
vt 0.0000 0.0000
vt 1.0000 0.0000
vt 1.0000 1.0000
vt 0.0000 1.0000
vt 0.5000 1.0000
vt 0.5975 0.9904
vt 0.6913 0.9619
vt 0.7778 0.9157
vt 0.8536 0.8536
vt 0.9157 0.7778
vt 0.9619 0.6913
vt 0.9904 0.5975
vt 1.0000 0.5000
vt 0.9904 0.4025
vt 0.9619 0.3087
vt 0.9157 0.2222
vt 0.8536 0.1464
vt 0.7778 0.0843
vt 0.6913 0.0381
vt 0.5975 0.0096
vt 0.5000 0.0000
vt 0.4025 0.0096
vt 0.3087 0.0381
vt 0.2222 0.0843
vt 0.1464 0.1464
vt 0.0843 0.2222
vt 0.0381 0.3087
vt 0.0096 0.4025
vt 0.0000 0.5000
vt 0.0096 0.5975
vt 0.0381 0.6913
vt 0.0843 0.7778
vt 0.1464 0.8536
vt 0.2222 0.9157
vt 0.3087 0.9619
vt 0.4025 0.9904
vn 0.0878 0.4455 -0.8910
vn 0.2599 0.4455 -0.8567
vn 0.4220 0.4455 -0.7896
vn 0.5680 0.4455 -0.6921
vn 0.6921 0.4455 -0.5680
vn 0.7896 0.4455 -0.4220
vn 0.8567 0.4455 -0.2599
vn 0.8910 0.4455 -0.0878
vn 0.8910 0.4455 0.0878
vn 0.8567 0.4455 0.2599
vn 0.7896 0.4455 0.4220
vn 0.6921 0.4455 0.5680
vn 0.5680 0.4455 0.6921
vn 0.4220 0.4455 0.7896
vn 0.2599 0.4455 0.8567
vn 0.0878 0.4455 0.8910
vn -0.0878 0.4455 0.8910
vn -0.2599 0.4455 0.8567
vn -0.4220 0.4455 0.7896
vn -0.5680 0.4455 0.6921
vn -0.6921 0.4455 0.5680
vn -0.7896 0.4455 0.4220
vn -0.8567 0.4455 0.2599
vn -0.8910 0.4455 0.0878
vn -0.8910 0.4455 -0.0878
vn -0.8567 0.4455 -0.2599
vn -0.7896 0.4455 -0.4220
vn -0.6921 0.4455 -0.5680
vn -0.5680 0.4455 -0.6921
vn -0.4220 0.4455 -0.7896
vn -0.2599 0.4455 -0.8567
vn -0.0878 0.4455 -0.8910
vn 0.0000 -1.0000 -0.0000
vn 0.0000 0.6799 0.7333
vn 0.0000 -0.6799 0.7333
vn 0.1805 -0.6805 0.7101
vn 0.1805 0.6805 0.7101
vn 0.3422 -0.6821 0.6462
vn 0.3422 0.6821 0.6462
vn 0.4738 -0.6842 0.5543
vn 0.4738 0.6842 0.5543
vn 0.5731 -0.6863 0.4478
vn 0.5731 0.6863 0.4478
vn 0.6433 -0.6880 0.3357
vn 0.6433 0.6880 0.3357
vn 0.6893 -0.6893 0.2229
vn 0.6893 0.6893 0.2229
vn 0.7152 -0.6901 0.1111
vn 0.7152 0.6901 0.1111
vn 0.7235 -0.6903 0.0000
vn 0.7235 0.6903 0.0000
vn 0.7152 -0.6901 -0.1111
vn 0.7152 0.6901 -0.1111
vn 0.6893 -0.6893 -0.2229
vn 0.6893 0.6893 -0.2229
vn 0.6433 -0.6880 -0.3357
vn 0.6433 0.6880 -0.3357
vn 0.5731 -0.6863 -0.4478
vn 0.5731 0.6863 -0.4478
vn 0.4738 -0.6842 -0.5543
vn 0.4738 0.6842 -0.5543
vn 0.3422 -0.6821 -0.6462
vn 0.3422 0.6821 -0.6462
vn 0.1805 -0.6805 -0.7101
vn 0.1805 0.6805 -0.7101
vn 0.0000 -0.6799 -0.7333
vn 0.0000 0.6799 -0.7333
vn -0.1805 -0.6805 -0.7101
vn -0.1805 0.6805 -0.7101
vn -0.3422 -0.6821 -0.6462
vn -0.3422 0.6821 -0.6462
vn -0.4738 -0.6842 -0.5543
vn -0.4738 0.6842 -0.5543
vn -0.5731 -0.6863 -0.4478
vn -0.5731 0.6863 -0.4478
vn -0.6433 -0.6880 -0.3357
vn -0.6433 0.6880 -0.3357
vn -0.6893 -0.6893 -0.2229
vn -0.6893 0.6893 -0.2229
vn -0.7152 -0.6901 -0.1111
vn -0.7152 0.6901 -0.1111
vn -0.7235 -0.6903 0.0000
vn -0.7235 0.6903 0.0000
vn -0.7152 -0.6901 0.1111
vn -0.7152 0.6901 0.1111
vn -0.6893 -0.6893 0.2229
vn -0.6893 0.6893 0.2229
vn -0.6433 -0.6880 0.3357
vn -0.6433 0.6880 0.3357
vn -0.5731 -0.6863 0.4478
vn -0.5731 0.6863 0.4478
vn -0.4738 -0.6842 0.5543
vn -0.4738 0.6842 0.5543
vn -0.3422 -0.6821 0.6462
vn -0.3422 0.6821 0.6462
vn -0.1805 -0.6805 0.7101
vn -0.1805 0.6805 0.7101
usemtl None
s off
f 65/1/1 74/2/1 66/3/1
f 66/4/2 74/2/2 67/5/2
f 67/6/3 74/2/3 68/7/3
f 68/8/4 74/2/4 69/9/4
f 69/10/5 74/2/5 70/11/5
f 70/12/6 74/2/6 71/13/6
f 71/14/7 74/2/7 72/15/7
f 72/16/8 74/2/8 73/17/8
f 73/18/9 74/2/9 75/19/9
f 75/20/10 74/2/10 76/21/10
f 76/22/11 74/2/11 77/23/11
f 77/24/12 74/2/12 78/25/12
f 78/26/13 74/2/13 79/27/13
f 79/28/14 74/2/14 80/29/14
f 80/30/15 74/2/15 81/31/15
f 81/32/16 74/2/16 82/33/16
f 82/34/17 74/2/17 83/35/17
f 83/36/18 74/2/18 84/37/18
f 84/38/19 74/2/19 85/39/19
f 85/40/20 74/2/20 86/41/20
f 86/42/21 74/2/21 87/43/21
f 87/44/22 74/2/22 88/45/22
f 88/46/23 74/2/23 89/47/23
f 89/48/24 74/2/24 90/49/24
f 90/50/25 74/2/25 91/51/25
f 91/52/26 74/2/26 92/53/26
f 92/54/27 74/2/27 93/55/27
f 93/56/28 74/2/28 94/57/28
f 94/58/29 74/2/29 95/59/29
f 95/60/30 74/2/30 96/61/30
f 96/62/31 74/2/31 97/63/31
f 97/64/32 74/2/32 65/65/32
f 65/66/33 66/67/33 67/68/33 68/69/33 69/70/33 70/71/33 71/72/33 72/73/33 73/74/33 75/75/33 76/76/33 77/77/33 78/78/33 79/79/33 80/80/33 81/81/33 82/82/33 83/83/33 84/84/33 85/85/33 86/86/33 87/87/33 88/88/33 89/89/33 90/90/33 91/91/33 92/92/33 93/93/33 94/94/33 95/95/33 96/96/33 97/97/33
s 1
f 1/98/34 2/99/35 4/100/36 3/101/37
f 3/102/37 4/103/36 6/104/38 5/105/39
f 5/106/39 6/107/38 8/108/40 7/109/41
f 7/110/41 8/111/40 10/112/42 9/113/43
f 9/114/43 10/115/42 12/116/44 11/117/45
f 11/118/45 12/119/44 14/120/46 13/121/47
f 13/122/47 14/123/46 16/124/48 15/125/49
f 15/126/49 16/127/48 18/128/50 17/129/51
f 17/130/51 18/131/50 20/132/52 19/133/53
f 19/134/53 20/135/52 22/136/54 21/137/55
f 21/138/55 22/139/54 24/140/56 23/141/57
f 23/142/57 24/143/56 26/144/58 25/145/59
f 25/146/59 26/147/58 28/148/60 27/149/61
f 27/150/61 28/151/60 30/152/62 29/153/63
f 29/154/63 30/155/62 32/156/64 31/157/65
f 31/158/65 32/159/64 34/160/66 33/161/67
f 33/162/67 34/163/66 36/164/68 35/165/69
f 35/166/69 36/167/68 38/168/70 37/169/71
f 37/170/71 38/171/70 40/172/72 39/173/73
f 39/174/73 40/175/72 42/176/74 41/177/75
f 41/178/75 42/179/74 44/180/76 43/181/77
f 43/182/77 44/183/76 46/184/78 45/185/79
f 45/186/79 46/187/78 48/188/80 47/189/81
f 47/190/81 48/191/80 50/192/82 49/193/83
f 49/194/83 50/195/82 52/196/84 51/197/85
f 51/198/85 52/199/84 54/200/86 53/201/87
f 53/202/87 54/203/86 56/204/88 55/205/89
f 55/206/89 56/207/88 58/208/90 57/209/91
f 57/210/91 58/211/90 60/212/92 59/213/93
f 59/214/93 60/215/92 62/216/94 61/217/95
f 4/218/36 2/219/35 64/220/96 62/221/94 60/222/92 58/223/90 56/224/88 54/225/86 52/226/84 50/227/82 48/228/80 46/229/78 44/230/76 42/231/74 40/232/72 38/233/70 36/234/68 34/235/66 32/236/64 30/237/62 28/238/60 26/239/58 24/240/56 22/241/54 20/242/52 18/243/50 16/244/48 14/245/46 12/246/44 10/247/42 8/248/40 6/249/38
f 61/250/95 62/251/94 64/252/96 63/253/97
f 63/254/97 64/255/96 2/256/35 1/257/34
f 1/258/34 3/259/37 5/260/39 7/261/41 9/262/43 11/263/45 13/264/47 15/265/49 17/266/51 19/267/53 21/268/55 23/269/57 25/270/59 27/271/61 29/272/63 31/273/65 33/274/67 35/275/69 37/276/71 39/277/73 41/278/75 43/279/77 45/280/79 47/281/81 49/282/83 51/283/85 53/284/87 55/285/89 57/286/91 59/287/93 61/288/95 63/289/97
